<?xml version="1.0" encoding="UTF-8"?>
<svg enable-background="new 0 0 1822 1652.7" version="1.1" viewBox="0 0 1822 1652.7" xmlns="http://www.w3.org/2000/svg">
    <path d="m1777.9 367.28c-49.498-192.74-205.16-314.79-419.32-337.94-18.615-2.012-36.719-2.987-54.37-2.987-186.16 0-318.61 108.71-394.33 257.29-79.11-155.06-214.15-255.64-411.04-255.64-13.03 0-26.345 0.441-39.919 1.336-195.83 12.908-364.05 130.01-417.05 358.28-95.34 410.63 355.93 830.38 868.02 1238.7 544.6-405.58 969.48-864 868.02-1259.1z"
          enable-background="new " fill="#f00"/>
    <g stroke="#fff" stroke-miterlimit="10">
        <path d="m289.58 942.75h188.68l27.389-82.166 25.867 82.166h27.389l12.173 38.04 30.432-523.43 45.648 737.97 24.345-252.58 65.428-1.522s54.777-76.079 115.64 0l94.339-1.522 31.953-79.123 25.867 76.079 25.867 3.043 10.651 39.561 34.997-509.73 44.126 725.8 22.824-255.63 74.558 3.043c2.707-0.245 51.68-76.387 112.6-1.522l176.5-1.522"
              fill="none" stroke-linecap="round" stroke-linejoin="round" stroke-width="30"/>
        <circle cx="1506.8" cy="938.4" r="25.578" fill="#fff"/>
    </g>
</svg>
